<svg width="12" height="12" viewBox="0 0 12 12" fill="none" xmlns="http://www.w3.org/2000/svg">
<path d="M9.10985 0.109835C9.25629 -0.0366117 9.49373 -0.0366117 9.64018 0.109835L11.8902 2.35984C12.0366 2.50628 12.0366 2.74372 11.8902 2.89016L4.39018 10.3902C4.35427 10.4261 4.31144 10.4543 4.26428 10.4732L0.514282 11.9732C0.375001 12.0289 0.215919 11.9962 0.109846 11.8902C0.00377242 11.7841 -0.0288804 11.625 0.0268322 11.4857L1.52683 7.73573C1.54569 7.68858 1.57394 7.64575 1.60985 7.60983L9.10985 0.109835ZM8.40534 1.875L10.125 3.59467L11.0947 2.625L9.37501 0.90533L8.40534 1.875ZM9.59468 4.125L7.87501 2.40533L3.00001 7.28033V7.5H3.37501C3.58212 7.5 3.75001 7.66789 3.75001 7.875V8.25H4.12501C4.33212 8.25 4.50001 8.41789 4.50001 8.625V9H4.71968L9.59468 4.125ZM2.27375 8.00659L2.1946 8.08574L1.04816 10.9519L3.91427 9.80541L3.99342 9.72626C3.85122 9.67297 3.75001 9.5358 3.75001 9.375V9H3.37501C3.1679 9 3.00001 8.83211 3.00001 8.625V8.25H2.62501C2.46421 8.25 2.32704 8.14879 2.27375 8.00659Z" fill="#222831"/>
</svg>
